<?xml version="1.0" standalone="no"?>
<!DOCTYPE svg PUBLIC "-//W3C//DTD SVG 20010904//EN"
 "http://www.w3.org/TR/2001/REC-SVG-20010904/DTD/svg10.dtd">
<svg version="1.0" xmlns="http://www.w3.org/2000/svg"
 width="1024.000000pt" height="1024.000000pt" viewBox="0 0 1024.000000 1024.000000"
 preserveAspectRatio="xMidYMid meet">
<metadata>
Created by potrace 1.14, written by Peter Selinger 2001-2017
</metadata>
<g transform="translate(0.000000,1024.000000) scale(0.100000,-0.100000)"
fill="#000000" stroke="none">
<path d="M2459 10236 c-2 -2 -62 -7 -134 -10 -71 -4 -139 -9 -150 -11 -11 -3
-47 -7 -80 -9 -62 -5 -99 -10 -195 -26 -30 -5 -71 -12 -90 -15 -28 -5 -106
-22 -175 -39 -253 -63 -568 -224 -806 -414 -232 -185 -461 -477 -592 -754 -53
-115 -139 -391 -161 -523 -11 -66 -27 -161 -31 -181 -9 -57 -23 -197 -33 -339
-9 -147 -9 -5458 1 -5605 4 -63 9 -128 11 -145 2 -16 7 -59 11 -95 4 -36 9
-72 10 -80 1 -8 8 -49 15 -90 7 -41 19 -104 27 -140 8 -36 16 -77 18 -92 8
-48 102 -321 136 -393 93 -198 252 -424 411 -585 329 -334 757 -554 1218 -625
19 -3 48 -8 63 -11 15 -3 44 -7 65 -9 131 -13 160 -16 187 -20 111 -17 548
-20 2935 -20 2352 0 2860 3 2961 20 13 2 51 6 84 10 435 45 775 164 1095 383
313 214 551 485 719 820 105 208 197 548 227 837 3 33 8 74 10 90 16 123 19
582 19 2960 0 2377 -3 2837 -19 2960 -3 17 -7 55 -10 85 -11 103 -18 146 -31
210 -3 14 -8 39 -11 55 -96 537 -388 1007 -830 1336 -318 236 -658 368 -1099
425 -89 11 -99 12 -185 19 -47 4 -101 10 -120 13 -38 6 -5464 14 -5471 8z"/>
</g>
</svg>
